<?xml version="1.0" encoding="UTF-8"?>
<svg width="18px" height="18px" viewBox="0 0 18 18" version="1.1" xmlns="http://www.w3.org/2000/svg" xmlns:xlink="http://www.w3.org/1999/xlink">
    <title>personal_night</title>
    <g id="页面-1" stroke="none" stroke-width="1" fill="none" fill-rule="evenodd">
        <g id="icon-深色" transform="translate(-78.000000, -2148.000000)">
            <g id="personal_night" transform="translate(78.000000, 2148.000000)">
                <circle id="椭圆形" fill="#FEFFFF" cx="9" cy="9" r="9"></circle>
                <path d="M3.08583517,12.4772548 C2.98217427,12.3315774 2.97156033,12.1388341 3.0585929,11.9825502 C3.14562547,11.8262662 3.31464424,11.7345629 3.49240484,11.7471799 L3.56762608,11.7525965 C3.64964302,11.7580132 3.73165996,11.7641364 3.81461423,11.7641364 C6.6144381,11.7681401 8.88911924,9.49383896 8.89966427,6.68022445 C8.90025312,5.62140296 8.56837946,4.58939389 7.95131416,3.73119281 C7.84744511,3.58580454 7.83651483,3.39319124 7.92326308,3.2368773 C8.01001134,3.08056337 8.17881633,2.98869816 8.35647782,3.0011179 C11.5963811,3.18151705 14.1004754,5.92824729 13.9968997,9.18767852 C13.893324,12.4471097 11.2200406,15.0273358 7.97521623,14.9997814 C6.03688599,14.9969855 4.21789448,14.0585325 3.08583517,12.4772548 Z" fill="#2B61FF" fill-rule="nonzero"></path>
            </g>
        </g>
    </g>
</svg>