<svg width="38" height="38" viewBox="0 0 38 38" fill="none" xmlns="http://www.w3.org/2000/svg">
<g clip-path="url(#clip0_118_352)">
<path d="M30.9835 15.1895H30.5537C31.0709 15.5836 31.5524 16.0216 31.9917 16.4988V16.1631C31.9917 15.6255 31.541 15.1895 30.9835 15.1895Z" fill="white"/>
<path d="M12.736 23.8928C12.736 17.8325 17.6937 12.9198 23.8094 12.9198C24.6642 12.9198 25.4961 13.0158 26.2951 13.1976H31.9914C31.9914 8.6544 29.2435 6 24.5903 6H12.4011C7.74789 6 5 8.6544 5 13.1385V22.9329C5 27.417 7.74789 30.0713 12.4011 30.0713H14.6579C13.4453 28.3114 12.736 26.184 12.736 23.8924V23.8928ZM11.3945 13.1976C10.8224 13.1921 10.3621 12.7416 10.3621 12.1891C10.376 11.6363 10.8366 11.1975 11.3945 11.205H19.0115V11.2034C19.2819 11.1999 19.5425 11.3029 19.7358 11.4894C19.9295 11.6763 20.0402 11.9317 20.0438 12.1997C20.0406 12.4677 19.9299 12.7236 19.7362 12.9104C19.5425 13.0977 19.2819 13.2008 19.0111 13.1972H11.3941L11.3945 13.1976Z" fill="white"/>
<path d="M23.8092 14.7852C18.7333 14.7852 14.6182 18.8625 14.6182 23.8928C14.6182 28.923 18.7329 33.0004 23.8092 33.0004C28.8854 33.0004 33.0002 28.923 33.0002 23.8928C33.0002 18.8625 28.8854 14.7852 23.8092 14.7852ZM29.3061 27.4455C29.8007 27.9357 29.8007 28.7291 29.3061 29.2188C28.8115 29.7089 28.0109 29.7089 27.5166 29.2188L23.9373 25.6719L20.3579 29.2188C19.8633 29.7089 19.0626 29.7089 18.5684 29.2188C18.0738 28.7287 18.0738 27.9353 18.5684 27.4455L22.1478 23.8986L18.5684 20.3517C18.0738 19.8616 18.0738 19.0682 18.5684 18.5785C19.063 18.0888 19.8637 18.0884 20.3579 18.5785L23.9373 22.1254L27.5166 18.5785C28.0113 18.0884 28.8119 18.0884 29.3061 18.5785C29.8007 19.0686 29.8007 19.862 29.3061 20.3517L25.7268 23.8986L29.3061 27.4455Z" fill="white"/>
</g>
<defs>
<clipPath id="clip0_118_352">
<rect width="28" height="27" fill="white" transform="translate(5 6)"/>
</clipPath>
</defs>
</svg>
