<?xml version="1.0" encoding="UTF-8"?>
<svg width="18px" height="18px" viewBox="0 0 18 18" version="1.1" xmlns="http://www.w3.org/2000/svg" xmlns:xlink="http://www.w3.org/1999/xlink">
    <title>personal_night@3x</title>
    <g id="页面-1" stroke="none" stroke-width="1" fill="none" fill-rule="evenodd">
        <g id="画板" transform="translate(-71.000000, -746.000000)">
            <g id="personal_night" transform="translate(71.000000, 746.000000)">
                <circle id="椭圆形" fill="#F5F6F8" cx="9" cy="9" r="9"></circle>
                <g id="personal_daytime" transform="translate(3.007189, 3.008627)" fill="#2B61FF" fill-rule="nonzero">
                    <path d="M3.24530291,5.99597393 C3.24530291,7.51353934 4.47553275,8.74376917 5.99309816,8.74376917 C7.51066357,8.74376917 8.7408934,7.51353934 8.7408934,5.99597393 C8.7408934,4.47840852 7.51066357,3.24817868 5.99309816,3.24817868 C4.47553275,3.24817868 3.24530291,4.47840852 3.24530291,5.99597393 Z" id="路径"></path>
                    <path d="M5.99309816,1.99865798 C5.64800613,1.99865798 5.36905675,1.71970859 5.36905675,1.37461656 L5.36905675,0.624041411 C5.36905675,0.278949387 5.64800613,0 5.99309816,0 C6.33819018,0 6.61714508,0.278949387 6.61714508,0.624041411 L6.61714508,1.37317868 C6.61857745,1.71970859 6.33819018,1.99865798 5.99309816,1.99865798 L5.99309816,1.99865798 Z M5.99309816,11.99051 C5.64800613,11.99051 5.36905675,11.7115606 5.36905675,11.3664686 L5.36905675,10.6173313 C5.36905675,10.2722393 5.64800613,9.99328988 5.99309816,9.99328988 C6.33819018,9.99328988 6.61714508,10.2722393 6.61714508,10.6173313 L6.61714508,11.3664686 C6.61857745,11.7115606 6.33819018,11.99051 5.99309816,11.99051 L5.99309816,11.99051 Z M3.16765721,3.16909509 C2.92321702,3.41353528 2.52779908,3.41353528 2.28479678,3.16909509 L1.75421779,2.6385161 C1.50977761,2.39407592 1.50977761,1.99865798 1.75421779,1.75565567 C1.99865798,1.51265337 2.39407592,1.51121549 2.63707822,1.75565567 L3.16765721,2.28623466 C3.41065951,2.53067485 3.41065951,2.92609279 3.16765721,3.16909509 L3.16765721,3.16909509 Z M10.2334164,10.2348543 C9.98897623,10.4792945 9.59355828,10.4792945 9.35055598,10.2348543 L8.81997699,9.70427531 C8.57553681,9.45983512 8.57553681,9.06441718 8.81997699,8.82141488 C9.06441718,8.57697469 9.45983512,8.57697469 9.70283742,8.82141488 L10.2334164,9.35199387 C10.4764187,9.59643405 10.4764187,9.99185199 10.2334164,10.2348543 Z M3.16765721,8.82141488 C3.41209739,9.06585506 3.41209739,9.46127301 3.16765721,9.70427531 L2.63707822,10.2348543 C2.39263804,10.4792945 1.99722009,10.4792945 1.75421779,10.2348543 C1.50977761,9.99041411 1.50977761,9.59499617 1.75421779,9.35199387 L2.28479678,8.82141488 C2.52779908,8.57841258 2.92321702,8.57841258 3.16765721,8.82141488 Z M10.2334164,1.75565567 C10.4778566,2.00009586 10.4778566,2.3955138 10.2334164,2.6385161 L9.70283742,3.16909509 C9.45839724,3.41353528 9.06297929,3.41353528 8.81997699,3.16909509 C8.57553681,2.92465491 8.57553681,2.52923696 8.81997699,2.28623466 L9.35055598,1.75565567 C9.59355828,1.51265337 9.98897623,1.51265337 10.2334164,1.75565567 L10.2334164,1.75565567 Z M1.99722009,5.99597393 C1.99722009,6.34106595 1.71827071,6.62001534 1.37317868,6.62001534 L0.624041411,6.62001534 C0.278949387,6.62001534 0,6.34106595 0,5.99597393 C0,5.6508819 0.278949387,5.37192701 0.624041411,5.37192701 L1.37317868,5.37192701 C1.71683282,5.37049463 1.99722009,5.6508819 1.99722009,5.99597393 Z M11.9890721,5.99597393 C11.9890721,6.34106595 11.7101227,6.62001534 11.3650307,6.62001534 L10.6158934,6.62001534 C10.2708014,6.62001534 9.99185199,6.34106595 9.99185199,5.99597393 C9.99185199,5.6508819 10.2708014,5.37192701 10.6158934,5.37192701 L11.3650307,5.37192701 C11.7101227,5.37049463 11.9890721,5.6508819 11.9890721,5.99597393 Z" id="形状"></path>
                </g>
            </g>
        </g>
    </g>
</svg>