<svg width="38" height="38" viewBox="0 0 38 38" fill="none" xmlns="http://www.w3.org/2000/svg">
<g clip-path="url(#clip0_118_366)">
<path d="M32.3458 24.5337C31.9717 24.1596 31.4642 23.9492 30.9352 23.9492H6.99502C6.46606 23.9492 5.95854 24.1596 5.58448 24.5337C5.21041 24.9078 5 25.4153 5 25.9447V30.0049C5 30.5338 5.21041 31.0414 5.58448 31.4154C5.95854 31.7895 6.46606 31.9999 6.99502 31.9999H30.9352C31.4642 31.9999 31.9717 31.7895 32.3458 31.4154C32.7198 31.0414 32.9302 30.5338 32.9302 30.0049V25.9447C32.9302 25.4158 32.7198 24.9082 32.3458 24.5337ZM13.0414 29.4589H9.79174V26.4897H13.0414V29.4589ZM20.59 29.4589H17.3403V26.4897H20.59V29.4589ZM28.1385 29.4589H24.8888V26.4897H28.1385V29.4589Z" fill="white"/>
<path d="M18.9394 6C24.9892 6 29.912 10.9228 29.912 16.9726C29.912 18.7679 29.479 20.4639 28.7109 21.9611H21.1137C21.9835 21.3557 22.5481 20.3903 22.5481 19.3037C22.5481 17.4733 20.9461 15.9839 18.9769 15.9839C18.0671 15.9839 17.3267 15.3546 17.3267 14.5792C17.3267 13.8038 18.0671 13.1745 18.9769 13.1745C19.8867 13.1745 20.6276 13.8052 20.6276 14.5792C20.6276 15.1081 21.0562 15.5367 21.5871 15.5367C22.118 15.5367 22.5476 15.1081 22.5476 14.5792C22.5476 13.0581 21.4405 11.7732 19.9369 11.3821V11.2345C19.9369 10.7055 19.5073 10.2769 18.9764 10.2769C18.7222 10.2769 18.4781 10.3777 18.2979 10.557C18.1177 10.7367 18.0169 10.9802 18.0164 11.2345V11.3821C16.5123 11.7732 15.4057 13.0581 15.4057 14.5792C15.4057 16.4095 17.0067 17.899 18.9769 17.899C19.8858 17.899 20.6271 18.5297 20.6271 19.3037C20.6271 20.0776 19.8867 20.7094 18.9764 20.7094C18.0661 20.7094 17.3262 20.0791 17.3262 19.3037C17.3262 18.7752 16.8962 18.3461 16.3657 18.3461C16.1115 18.3461 15.8675 18.4465 15.6877 18.6262C15.508 18.8059 15.4067 19.0494 15.4062 19.3037C15.4062 20.3908 15.9698 21.3557 16.8397 21.9611H9.16888C8.3774 20.4176 7.96534 18.7075 7.9668 16.9726C7.96729 10.9228 12.8896 6 18.9394 6Z" fill="white"/>
</g>
<defs>
<clipPath id="clip0_118_366">
<rect width="27.9302" height="26" fill="white" transform="translate(5 6)"/>
</clipPath>
</defs>
</svg>
