<svg width="38" height="38" viewBox="0 0 38 38" fill="none" xmlns="http://www.w3.org/2000/svg">
<g clip-path="url(#clip0_118_343)">
<path d="M30.7472 15.1895H30.3213C30.8338 15.5836 31.311 16.0216 31.7462 16.4988V16.1631C31.7462 15.6255 31.2996 15.1895 30.7472 15.1895Z" fill="white"/>
<path d="M12.6658 23.8928C12.6658 17.8325 17.5785 12.9198 23.6388 12.9198C24.4858 12.9198 25.3101 13.0158 26.102 13.1976H31.7465C31.7465 8.6544 29.0236 6 24.4125 6H12.334C7.72296 6 5 8.6544 5 13.1385V22.9329C5 27.417 7.72296 30.0713 12.334 30.0713H14.5703C13.3687 28.3114 12.6658 26.184 12.6658 23.8924V23.8928ZM11.3365 13.1976C10.7695 13.1921 10.3135 12.7416 10.3135 12.1891C10.3272 11.6363 10.7836 11.1975 11.3365 11.205H18.8843V11.2034C19.1523 11.1999 19.4105 11.3029 19.6021 11.4894C19.7941 11.6763 19.9038 11.9317 19.9073 12.1997C19.9042 12.4677 19.7945 12.7236 19.6025 12.9104C19.4105 13.0977 19.1523 13.2008 18.884 13.1972H11.3361L11.3365 13.1976Z" fill="white"/>
<path d="M23.6379 14.7852C18.6081 14.7852 14.5303 18.8625 14.5303 23.8928C14.5303 28.923 18.6077 33.0004 23.6379 33.0004C28.6681 33.0004 32.7455 28.923 32.7455 23.8928C32.7455 18.8625 28.6681 14.7852 23.6379 14.7852ZM21.9222 29.2674L16.8673 24.2125L18.552 22.5278L21.9222 25.898L28.9032 18.917L30.5879 20.6021L21.9222 29.2678V29.2674Z" fill="white"/>
</g>
<defs>
<clipPath id="clip0_118_343">
<rect width="27.746" height="27" fill="white" transform="translate(5 6)"/>
</clipPath>
</defs>
</svg>
